<?xml version="1.0" encoding="UTF-8" standalone="no"?>
<!-- Created with Inkscape (http://www.inkscape.org/) -->

<svg
   width="135.73187mm"
   height="136.24127mm"
   viewBox="0 0 135.73187 136.24127"
   version="1.1"
   id="svg1"
   xml:space="preserve"
   inkscape:version="1.3.2 (091e20e, 2023-11-25, custom)"
   sodipodi:docname="icons.svg"
   xmlns:inkscape="http://www.inkscape.org/namespaces/inkscape"
   xmlns:sodipodi="http://sodipodi.sourceforge.net/DTD/sodipodi-0.dtd"
   xmlns="http://www.w3.org/2000/svg"
   xmlns:svg="http://www.w3.org/2000/svg"><sodipodi:namedview
     id="namedview1"
     pagecolor="#ffffff"
     bordercolor="#000000"
     borderopacity="0.25"
     inkscape:showpageshadow="2"
     inkscape:pageopacity="0.0"
     inkscape:pagecheckerboard="0"
     inkscape:deskcolor="#d1d1d1"
     inkscape:document-units="mm"
     inkscape:zoom="0.8347718"
     inkscape:cx="213.83089"
     inkscape:cy="885.87085"
     inkscape:window-width="1920"
     inkscape:window-height="1057"
     inkscape:window-x="-8"
     inkscape:window-y="-8"
     inkscape:window-maximized="1"
     inkscape:current-layer="layer1" /><defs
     id="defs1" /><g
     inkscape:label="Capa 1"
     inkscape:groupmode="layer"
     id="layer1"
     transform="translate(-238.37284,-163.26426)"><path
       style="fill:#ffffff;fill-opacity:1;stroke:none"
       d="m 273.98624,163.90426 c -4.79464,0.62953 -9.34961,1.20433 -13.75833,3.39283 -3.09372,1.53572 -6.13815,3.22134 -8.73125,5.53665 -12.42309,11.09227 -12.96458,24.97128 -12.96458,40.43531 v 26.9875 c 0,15.60856 -1.99961,31.84649 8.17248,44.97917 10.40252,13.43018 25.56257,14.02291 41.04001,14.02291 h 26.45834 c 9.4902,0 19.44555,0.84906 28.83958,-0.60184 3.72542,-0.5754 7.23041,-1.88539 10.58333,-3.56616 10.2221,-5.12419 17.8254,-15.20045 19.72861,-26.52366 1.13636,-6.76081 0.64431,-13.80294 0.64431,-20.6375 v -28.575 c 0,-13.81356 1.48698,-28.06662 -6.99228,-39.95208 -14.68418,-20.58295 -42.46221,-15.61042 -64.44522,-15.61042 -9.29703,0 -19.36264,-1.0973 -28.575,0.11229 m 1.05833,11.8695 c 9.94526,-1.17343 20.67154,-0.0755 30.69167,-0.0755 11.29235,0 23.18887,-1.05401 34.39583,0.34033 6.66918,0.82976 12.90855,4.57906 16.89209,9.97842 6.3333,8.58426 5.06833,19.30469 5.06833,29.36875 v 33.60208 c 0,6.60289 0.70639,13.68491 -1.09937,20.10833 -2.62898,9.3518 -11.0439,16.50617 -20.59647,17.87837 -9.85712,1.41595 -20.47478,0.37788 -30.42708,0.37788 -12.31091,0 -25.06179,0.93468 -37.30625,-0.30929 -6.7481,-0.68557 -13.15475,-4.5852 -17.15667,-10.00946 -6.94739,-9.41657 -5.06832,-22.05307 -5.06832,-33.07291 v -31.75 c 0,-6.166 -0.65547,-12.82886 1.25575,-18.78542 3.4462,-10.74053 12.66964,-16.39132 23.35049,-17.65154 m 65.88125,10.89528 c -11.00173,1.98358 -7.78779,19.19326 3.175,17.2167 11.29625,-2.03669 8.10001,-19.24956 -3.175,-17.2167 m -36.24791,10.04355 c -8.80086,1.15555 -16.84153,3.62822 -23.25965,10.21688 -18.01056,18.48913 -10.01498,51.22226 15.32215,58.1577 4.47977,1.22623 9.15967,1.57478 13.75833,1.02301 17.24791,-2.06948 30.68962,-17.17556 30.68962,-34.58488 0,-18.42403 -17.05878,-37.36671 -36.51045,-34.81271 m 1.05833,11.87338 c 15.00438,-1.40277 25.89663,14.59543 22.84277,28.231 -2.33346,10.41894 -11.69597,17.13987 -22.04902,17.67176 -16.04902,0.82451 -27.17955,-16.78257 -21.67868,-31.16551 3.46829,-9.06844 11.57317,-13.86669 20.88493,-14.73725 z"
       id="path34" /></g></svg>
