<?xml version="1.0" encoding="UTF-8" standalone="no"?>
<!-- Created with Inkscape (http://www.inkscape.org/) -->

<svg
   width="132.15514mm"
   height="132.14932mm"
   viewBox="0 0 132.15514 132.14932"
   version="1.1"
   id="svg1"
   xml:space="preserve"
   inkscape:version="1.3.2 (091e20e, 2023-11-25, custom)"
   sodipodi:docname="icons.svg"
   xmlns:inkscape="http://www.inkscape.org/namespaces/inkscape"
   xmlns:sodipodi="http://sodipodi.sourceforge.net/DTD/sodipodi-0.dtd"
   xmlns="http://www.w3.org/2000/svg"
   xmlns:svg="http://www.w3.org/2000/svg"><sodipodi:namedview
     id="namedview1"
     pagecolor="#ffffff"
     bordercolor="#000000"
     borderopacity="0.25"
     inkscape:showpageshadow="2"
     inkscape:pageopacity="0.0"
     inkscape:pagecheckerboard="0"
     inkscape:deskcolor="#d1d1d1"
     inkscape:document-units="mm"
     inkscape:zoom="0.8347718"
     inkscape:cx="213.83089"
     inkscape:cy="885.87085"
     inkscape:window-width="1920"
     inkscape:window-height="1057"
     inkscape:window-x="-8"
     inkscape:window-y="-8"
     inkscape:window-maximized="1"
     inkscape:current-layer="layer1" /><defs
     id="defs1" /><g
     inkscape:label="Capa 1"
     inkscape:groupmode="layer"
     id="layer1"
     transform="translate(-422.4521,-222.18861)"><path
       style="fill:#ffffff;fill-opacity:1;stroke:none;stroke-width:0.845697"
       d="m 451.26727,222.66088 c -7.84105,1.02954 -14.52545,1.68574 -20.56566,7.55076 -7.61381,7.39304 -7.85152,17.82775 -7.85152,27.70795 v 46.31776 c 0,12.77265 -2.69085,29.39629 5.92075,40.05257 7.58542,9.38642 18.76356,9.84532 29.88042,9.84532 h 46.31778 c 8.84871,0 18.08009,0.716 26.85088,-0.54333 9.35051,-1.34257 17.45247,-7.46521 20.65455,-16.46222 3.02629,-8.50303 1.94494,-18.41388 1.94494,-27.2984 v -48.10783 c 0,-9.72643 0.73553,-20.10767 -5.24225,-28.41719 -6.29256,-8.74706 -16.41461,-10.74035 -26.5313,-10.74035 h -47.66032 c -7.71753,0 -16.07093,-0.90915 -23.71827,0.095 m 70.93107,41.07639 v 17.22932 c -5.82338,-1.0972 -10.15913,-3.34961 -15.43925,-5.81769 0,10.06668 0.11884,20.14136 -8.5e-4,30.20724 -0.19887,16.72333 -18.77262,27.35149 -33.78649,22.5931 -11.41638,-3.61821 -17.95633,-14.13077 -17.90041,-25.7257 0.0206,-4.26865 1.43138,-8.70267 3.67506,-12.30665 2.41203,-3.8744 5.68855,-7.28919 9.7502,-9.44667 4.96372,-2.63666 10.57752,-3.33549 16.11053,-2.63623 v 14.09671 c -4.16589,-0.17889 -7.47018,-0.60024 -10.96411,2.31043 -7.07102,5.8906 -5.17277,16.90573 3.58012,20.04511 7.05445,2.5302 14.31715,-2.67737 15.34343,-9.82512 0.87584,-6.1 0.0958,-12.8538 0.0958,-19.01939 v -37.81498 h 7.384 c 0.78374,0 2.11928,-0.2488 2.79403,0.22996 0.65398,0.46404 0.76988,1.74149 1.0107,2.45512 0.53977,1.59959 1.24367,3.06172 2.16869,4.47516 3.60129,5.50278 9.60112,8.95028 16.17855,8.95028 z"
       id="path35" /></g></svg>
