<?xml version="1.0" encoding="UTF-8" standalone="no"?>
<!-- Created with Inkscape (http://www.inkscape.org/) -->

<svg
   width="142.52867mm"
   height="142.52869mm"
   viewBox="0 0 142.52867 142.52869"
   version="1.1"
   id="svg1"
   xml:space="preserve"
   inkscape:version="1.3.2 (091e20e, 2023-11-25, custom)"
   sodipodi:docname="icons.svg"
   xmlns:inkscape="http://www.inkscape.org/namespaces/inkscape"
   xmlns:sodipodi="http://sodipodi.sourceforge.net/DTD/sodipodi-0.dtd"
   xmlns="http://www.w3.org/2000/svg"
   xmlns:svg="http://www.w3.org/2000/svg"><sodipodi:namedview
     id="namedview1"
     pagecolor="#ffffff"
     bordercolor="#000000"
     borderopacity="0.25"
     inkscape:showpageshadow="2"
     inkscape:pageopacity="0.0"
     inkscape:pagecheckerboard="0"
     inkscape:deskcolor="#d1d1d1"
     inkscape:document-units="mm"
     inkscape:zoom="0.5902728"
     inkscape:cx="2939.3189"
     inkscape:cy="875.01914"
     inkscape:window-width="1920"
     inkscape:window-height="1057"
     inkscape:window-x="-8"
     inkscape:window-y="-8"
     inkscape:window-maximized="1"
     inkscape:current-layer="layer1" /><defs
     id="defs1" /><g
     inkscape:label="Capa 1"
     inkscape:groupmode="layer"
     id="layer1"
     transform="translate(-232.92338,-321.32427)"><path
       style="fill:#ffffff;fill-opacity:1;stroke:none;stroke-width:1.85158"
       d="m 308.65377,401.03311 c 13.42408,0.002 24.84922,6.65992 32.98718,17.14642 2.83153,3.6487 4.29051,8.26493 7.18442,11.75755 2.90055,-4.9884 3.43838,-10.01358 3.42927,-15.67673 -0.0381,-23.72478 -20.53034,-42.14492 -43.60087,-42.6211 0,-5.38275 1.89348,-15.11248 -1.8564,-19.43449 -2.42807,-2.79854 -6.92647,-2.66895 -9.90115,-0.86714 -15.82496,9.58532 -46.01106,28.69548 -46.01106,34.99858 -0.55652,1.78989 3.1862,5.7532 3.77025,5.84208 l 42.24081,29.20146 c 1.74258,1.51024 8.47745,2.23598 10.66585,-1.77626 2.51942,-4.61906 1.0917,-13.45772 1.0917,-18.57036 m -6.41842,-46.21565 -0.44016,24.17026 c 25.57385,0 47.02722,14.96565 47.03018,42.1312 h -0.48989 c -4.7323,-19.92315 -28.5772,-27.43427 -46.54029,-27.43427 l -0.48989,20.5757 -44.60064,-28.28843 z"
       id="path10"
       sodipodi:nodetypes="cscscsscccsccccccccc" /><circle
       style="fill:none;fill-opacity:1;stroke:#ffffff;stroke-width:10;stroke-linecap:square;stroke-dasharray:none;stroke-opacity:1;paint-order:fill markers stroke"
       id="path11"
       cx="304.18771"
       cy="392.58862"
       r="66.264336" /></g></svg>
