<?xml version="1.0" encoding="UTF-8" standalone="no"?>
<!-- Created with Inkscape (http://www.inkscape.org/) -->

<svg
   width="134.04073mm"
   height="133.7534mm"
   viewBox="0 0 134.04073 133.7534"
   version="1.1"
   id="svg1"
   xml:space="preserve"
   inkscape:version="1.3.2 (091e20e, 2023-11-25, custom)"
   sodipodi:docname="icons.svg"
   xmlns:inkscape="http://www.inkscape.org/namespaces/inkscape"
   xmlns:sodipodi="http://sodipodi.sourceforge.net/DTD/sodipodi-0.dtd"
   xmlns="http://www.w3.org/2000/svg"
   xmlns:svg="http://www.w3.org/2000/svg"><sodipodi:namedview
     id="namedview1"
     pagecolor="#ffffff"
     bordercolor="#000000"
     borderopacity="0.25"
     inkscape:showpageshadow="2"
     inkscape:pageopacity="0.0"
     inkscape:pagecheckerboard="0"
     inkscape:deskcolor="#d1d1d1"
     inkscape:document-units="mm"
     inkscape:zoom="0.8347718"
     inkscape:cx="213.83089"
     inkscape:cy="885.87085"
     inkscape:window-width="1920"
     inkscape:window-height="1057"
     inkscape:window-x="-8"
     inkscape:window-y="-8"
     inkscape:window-maximized="1"
     inkscape:current-layer="layer1" /><defs
     id="defs1" /><g
     inkscape:label="Capa 1"
     inkscape:groupmode="layer"
     id="layer1"
     transform="translate(-754.05739,-220.73216)"><path
       style="fill:#ffffff;fill-opacity:1;stroke:none"
       d="m 784.36955,220.99107 c -6.81569,0.89491 -12.90208,0.87831 -18.78542,5.11222 -10.42173,7.49995 -11.1125,19.30191 -11.1125,31.02342 v 45.24375 c 0,13.646 -2.82887,30.94563 6.29916,42.33334 7.40871,9.24275 18.59597,9.525 29.41959,9.525 h 48.68334 c 8.94193,0 18.4132,0.8747 27.25208,-0.60472 9.93651,-1.6631 17.44968,-9.01133 20.36617,-18.44529 2.50785,-8.11216 1.32966,-17.80062 1.32966,-26.19375 v -48.41875 c 0,-9.55373 0.84756,-20.10856 -5.0032,-28.31042 -3.88054,-5.43991 -9.61801,-9.14758 -16.16346,-10.46451 -2.81756,-0.56689 -5.64223,-0.39027 -8.46667,-0.72353 -4.5971,-0.54243 -9.39355,-0.18904 -14.02292,-0.18904 h -25.4 -22.48958 c -3.89807,0 -8.04043,-0.39531 -11.90625,0.11228 m 74.87708,35.07731 c -0.77274,3.25183 -3.49148,7.14433 -6.61458,8.46666 v 0.26459 l 8.73125,-2.11667 c -1.08542,2.17899 -2.96687,4.15343 -4.7625,5.77591 -0.96009,0.86752 -2.53194,1.71215 -3.01535,2.96576 -1.11758,2.89817 0.0899,7.21624 -0.20457,10.30833 -0.66719,7.00627 -3.12687,13.75499 -7.06883,19.57917 -13.76102,20.33169 -44.97369,25.23542 -65.1175,11.90625 v -0.26459 c 8.5767,0.17703 16.99277,-1.06661 23.8125,-6.87916 -6.5377,-0.13494 -13.52473,-4.82406 -15.08125,-11.37709 l 6.61458,-0.52916 c -7.42488,-2.14881 -12.43542,-8.37071 -12.43542,-16.13959 l 6.87917,1.85209 c -1.27804,-1.58505 -2.96169,-2.7584 -4.08838,-4.49792 -3.34768,-5.16856 -3.79619,-12.09316 -0.67412,-17.4625 h 0.52917 c 5.68107,8.06495 15.81234,13.37873 25.13541,15.83417 2.78404,0.73323 5.69475,0.7038 8.46667,1.36375 -0.0606,-2.93753 -0.44199,-5.56079 0.37789,-8.46667 2.40812,-8.53495 11.66493,-13.82635 20.25961,-11.44446 1.85191,0.51323 3.70677,1.29266 5.29167,2.38881 0.95411,0.65988 1.96038,1.89894 3.175,2.01398 3.1909,0.30221 6.90637,-2.50996 9.78958,-3.54166 z"
       id="path37" /></g></svg>
